<?xml version="1.0" encoding="UTF-8" standalone="no"?>
<!DOCTYPE svg PUBLIC "-//W3C//DTD SVG 1.1//EN"
 "http://www.w3.org/Graphics/SVG/1.1/DTD/svg11.dtd">
<!-- Generated by graphviz version 2.40.1 (20161225.0304)
 -->
<!-- Title: dependencies Pages: 1 -->
<svg width="3229pt" height="284pt"
 viewBox="0.00 0.00 3229.00 284.00" xmlns="http://www.w3.org/2000/svg" xmlns:xlink="http://www.w3.org/1999/xlink">
<g id="graph0" class="graph" transform="scale(1 1) rotate(0) translate(4 280)">
<title>dependencies</title>
<polygon fill="#ffffff" stroke="transparent" points="-4,4 -4,-280 3225,-280 3225,4 -4,4"/>
<text text-anchor="start" x="1589.5091" y="-42.4" font-family="sans-serif" font-weight="bold" font-size="14.00" fill="#000000">Legend</text>
<polygon fill="#ffffb3" stroke="transparent" points="1376.5,-10 1376.5,-30 1396.5,-30 1396.5,-10 1376.5,-10"/>
<text text-anchor="start" x="1400.129" y="-15.4" font-family="sans-serif" font-size="14.00" fill="#000000"> &#160;Declarations</text>
<polygon fill="#8dd3c7" stroke="transparent" points="1489.5,-10 1489.5,-30 1509.5,-30 1509.5,-10 1489.5,-10"/>
<text text-anchor="start" x="1513.2251" y="-15.4" font-family="sans-serif" font-size="14.00" fill="#000000"> &#160;Module</text>
<polygon fill="#80b1d3" stroke="transparent" points="1575.5,-10 1575.5,-30 1595.5,-30 1595.5,-10 1575.5,-10"/>
<text text-anchor="start" x="1599.2812" y="-15.4" font-family="sans-serif" font-size="14.00" fill="#000000"> &#160;Bootstrap</text>
<polygon fill="#fdb462" stroke="transparent" points="1672.5,-10 1672.5,-30 1692.5,-30 1692.5,-10 1672.5,-10"/>
<text text-anchor="start" x="1696.1732" y="-15.4" font-family="sans-serif" font-size="14.00" fill="#000000"> &#160;Providers</text>
<polygon fill="#fb8072" stroke="transparent" points="1768.5,-10 1768.5,-30 1788.5,-30 1788.5,-10 1768.5,-10"/>
<text text-anchor="start" x="1792.2258" y="-15.4" font-family="sans-serif" font-size="14.00" fill="#000000"> &#160;Exports</text>
<g id="clust1" class="cluster">
<title>cluster_AppModule</title>
<polygon fill="none" stroke="#000000" stroke-dasharray="1,5" points="8,-70 8,-268 3213,-268 3213,-70 8,-70"/>
</g>
<g id="clust2" class="cluster">
<title>cluster_AppModule_declarations</title>
<polygon fill="none" stroke="#000000" points="2817,-78 2817,-130 3205,-130 3205,-78 2817,-78"/>
</g>
<g id="clust6" class="cluster">
<title>cluster_AppModule_imports</title>
<polygon fill="none" stroke="#000000" points="422,-78 422,-130 2809,-130 2809,-78 422,-78"/>
</g>
<g id="clust7" class="cluster">
<title>cluster_AppModule_exports</title>
<polygon fill="none" stroke="#000000" points="1689,-208 1689,-260 1855,-260 1855,-208 1689,-208"/>
</g>
<g id="clust8" class="cluster">
<title>cluster_AppModule_bootstrap</title>
<polygon fill="none" stroke="#000000" points="1863,-208 1863,-260 1987,-260 1987,-208 1863,-208"/>
</g>
<g id="clust9" class="cluster">
<title>cluster_AppModule_providers</title>
<polygon fill="none" stroke="#000000" points="16,-78 16,-130 414,-130 414,-78 16,-78"/>
</g>
<!-- AppComponent -->
<g id="node1" class="node">
<title>AppComponent</title>
<polygon fill="#ffffb3" stroke="#000000" points="3196.9399,-122 3091.0601,-122 3091.0601,-86 3196.9399,-86 3196.9399,-122"/>
<text text-anchor="middle" x="3144" y="-99.8" font-family="Times,serif" font-size="14.00" fill="#000000">AppComponent</text>
</g>
<!-- AppModule -->
<g id="node4" class="node">
<title>AppModule</title>
<polygon fill="#8dd3c7" stroke="#000000" points="1889.6571,-187 1886.6571,-191 1865.6571,-191 1862.6571,-187 1806.3429,-187 1806.3429,-151 1889.6571,-151 1889.6571,-187"/>
<text text-anchor="middle" x="1848" y="-164.8" font-family="Times,serif" font-size="14.00" fill="#000000">AppModule</text>
</g>
<!-- AppComponent&#45;&gt;AppModule -->
<g id="edge1" class="edge">
<title>AppComponent&#45;&gt;AppModule</title>
<path fill="none" stroke="#000000" d="M3144,-122.1532C3144,-145.7566 3144,-184 3144,-184 3144,-184 1900.0172,-184 1900.0172,-184"/>
<polygon fill="#000000" stroke="#000000" points="1900.0172,-180.5001 1890.0172,-184 1900.0171,-187.5001 1900.0172,-180.5001"/>
</g>
<!-- LoginComponent -->
<g id="node2" class="node">
<title>LoginComponent</title>
<polygon fill="#ffffb3" stroke="#000000" points="3073.2758,-122 2958.7242,-122 2958.7242,-86 3073.2758,-86 3073.2758,-122"/>
<text text-anchor="middle" x="3016" y="-99.8" font-family="Times,serif" font-size="14.00" fill="#000000">LoginComponent</text>
</g>
<!-- LoginComponent&#45;&gt;AppModule -->
<g id="edge2" class="edge">
<title>LoginComponent&#45;&gt;AppModule</title>
<path fill="none" stroke="#000000" d="M3016,-122.0109C3016,-144.4852 3016,-180 3016,-180 3016,-180 1899.9141,-180 1899.9141,-180"/>
<polygon fill="#000000" stroke="#000000" points="1899.9141,-176.5001 1889.9141,-180 1899.9141,-183.5001 1899.9141,-176.5001"/>
</g>
<!-- HomeComponent -->
<g id="node3" class="node">
<title>HomeComponent</title>
<polygon fill="#ffffb3" stroke="#000000" points="2940.5451,-122 2825.4549,-122 2825.4549,-86 2940.5451,-86 2940.5451,-122"/>
<text text-anchor="middle" x="2883" y="-99.8" font-family="Times,serif" font-size="14.00" fill="#000000">HomeComponent</text>
</g>
<!-- HomeComponent&#45;&gt;AppModule -->
<g id="edge3" class="edge">
<title>HomeComponent&#45;&gt;AppModule</title>
<path fill="none" stroke="#000000" d="M2883,-122.0449C2883,-143.6623 2883,-177 2883,-177 2883,-177 1899.8551,-177 1899.8551,-177"/>
<polygon fill="#000000" stroke="#000000" points="1899.8552,-173.5001 1889.8551,-177 1899.8551,-180.5001 1899.8552,-173.5001"/>
</g>
<!-- Ng2SearchPipeModule  -->
<g id="node21" class="node">
<title>Ng2SearchPipeModule </title>
<polygon fill="#fb8072" stroke="#000000" points="1847.1313,-252 1696.8687,-252 1696.8687,-216 1847.1313,-216 1847.1313,-252"/>
<text text-anchor="middle" x="1772" y="-229.8" font-family="Times,serif" font-size="14.00" fill="#000000">Ng2SearchPipeModule </text>
</g>
<!-- AppModule&#45;&gt;Ng2SearchPipeModule  -->
<g id="edge20" class="edge">
<title>AppModule&#45;&gt;Ng2SearchPipeModule </title>
<path fill="none" stroke="#000000" stroke-dasharray="5,2" d="M1826.6187,-187.1061C1826.6187,-187.1061 1826.6187,-205.991 1826.6187,-205.991"/>
<polygon fill="#000000" stroke="#000000" points="1823.1188,-205.9909 1826.6187,-215.991 1830.1188,-205.991 1823.1188,-205.9909"/>
</g>
<!-- AppComponent  -->
<g id="node22" class="node">
<title>AppComponent </title>
<polygon fill="#80b1d3" stroke="#000000" points="1979.439,-252 1870.561,-252 1870.561,-216 1979.439,-216 1979.439,-252"/>
<text text-anchor="middle" x="1925" y="-229.8" font-family="Times,serif" font-size="14.00" fill="#000000">AppComponent </text>
</g>
<!-- AppModule&#45;&gt;AppComponent  -->
<g id="edge21" class="edge">
<title>AppModule&#45;&gt;AppComponent </title>
<path fill="none" stroke="#000000" stroke-dasharray="1,5" d="M1880.1794,-187.1061C1880.1794,-187.1061 1880.1794,-205.991 1880.1794,-205.991"/>
<polygon fill="#000000" stroke="#000000" points="1876.6794,-205.9909 1880.1794,-215.991 1883.6794,-205.991 1876.6794,-205.9909"/>
</g>
<!-- BrowserModule -->
<g id="node5" class="node">
<title>BrowserModule</title>
<polygon fill="#8dd3c7" stroke="#000000" points="2801.4734,-122 2798.4734,-126 2777.4734,-126 2774.4734,-122 2694.5266,-122 2694.5266,-86 2801.4734,-86 2801.4734,-122"/>
<text text-anchor="middle" x="2748" y="-99.8" font-family="Times,serif" font-size="14.00" fill="#000000">BrowserModule</text>
</g>
<!-- BrowserModule&#45;&gt;AppModule -->
<g id="edge4" class="edge">
<title>BrowserModule&#45;&gt;AppModule</title>
<path fill="none" stroke="#000000" d="M2748,-122.1289C2748,-142.5724 2748,-173 2748,-173 2748,-173 1899.9023,-173 1899.9023,-173"/>
<polygon fill="#000000" stroke="#000000" points="1899.9024,-169.5001 1889.9023,-173 1899.9023,-176.5001 1899.9024,-169.5001"/>
</g>
<!-- HttpModule -->
<g id="node6" class="node">
<title>HttpModule</title>
<polygon fill="#8dd3c7" stroke="#000000" points="2676.4387,-122 2673.4387,-126 2652.4387,-126 2649.4387,-122 2591.5613,-122 2591.5613,-86 2676.4387,-86 2676.4387,-122"/>
<text text-anchor="middle" x="2634" y="-99.8" font-family="Times,serif" font-size="14.00" fill="#000000">HttpModule</text>
</g>
<!-- HttpModule&#45;&gt;AppModule -->
<g id="edge5" class="edge">
<title>HttpModule&#45;&gt;AppModule</title>
<path fill="none" stroke="#000000" d="M2634,-122.1061C2634,-141.3391 2634,-169 2634,-169 2634,-169 1899.7038,-169 1899.7038,-169"/>
<polygon fill="#000000" stroke="#000000" points="1899.7039,-165.5001 1889.7038,-169 1899.7038,-172.5001 1899.7039,-165.5001"/>
</g>
<!-- FormsModule -->
<g id="node7" class="node">
<title>FormsModule</title>
<polygon fill="#8dd3c7" stroke="#000000" points="2573.8288,-122 2570.8288,-126 2549.8288,-126 2546.8288,-122 2478.1712,-122 2478.1712,-86 2573.8288,-86 2573.8288,-122"/>
<text text-anchor="middle" x="2526" y="-99.8" font-family="Times,serif" font-size="14.00" fill="#000000">FormsModule</text>
</g>
<!-- FormsModule&#45;&gt;AppModule -->
<g id="edge6" class="edge">
<title>FormsModule&#45;&gt;AppModule</title>
<path fill="none" stroke="#000000" d="M2526,-122.2667C2526,-140.5552 2526,-166 2526,-166 2526,-166 1899.9003,-166 1899.9003,-166"/>
<polygon fill="#000000" stroke="#000000" points="1899.9003,-162.5001 1889.9003,-166 1899.9002,-169.5001 1899.9003,-162.5001"/>
</g>
<!-- BrowserAnimationsModule -->
<g id="node8" class="node">
<title>BrowserAnimationsModule</title>
<polygon fill="#8dd3c7" stroke="#000000" points="2460.3019,-122 2457.3019,-126 2436.3019,-126 2433.3019,-122 2287.6981,-122 2287.6981,-86 2460.3019,-86 2460.3019,-122"/>
<text text-anchor="middle" x="2374" y="-99.8" font-family="Times,serif" font-size="14.00" fill="#000000">BrowserAnimationsModule</text>
</g>
<!-- BrowserAnimationsModule&#45;&gt;AppModule -->
<g id="edge7" class="edge">
<title>BrowserAnimationsModule&#45;&gt;AppModule</title>
<path fill="none" stroke="#000000" d="M2374,-122.0336C2374,-139.0597 2374,-162 2374,-162 2374,-162 1899.714,-162 1899.714,-162"/>
<polygon fill="#000000" stroke="#000000" points="1899.714,-158.5001 1889.714,-162 1899.714,-165.5001 1899.714,-158.5001"/>
</g>
<!-- MatCheckboxModule -->
<g id="node9" class="node">
<title>MatCheckboxModule</title>
<polygon fill="#8dd3c7" stroke="#000000" points="2269.3655,-122 2266.3655,-126 2245.3655,-126 2242.3655,-122 2130.6345,-122 2130.6345,-86 2269.3655,-86 2269.3655,-122"/>
<text text-anchor="middle" x="2200" y="-99.8" font-family="Times,serif" font-size="14.00" fill="#000000">MatCheckboxModule</text>
</g>
<!-- MatCheckboxModule&#45;&gt;AppModule -->
<g id="edge8" class="edge">
<title>MatCheckboxModule&#45;&gt;AppModule</title>
<path fill="none" stroke="#000000" d="M2200,-122.0091C2200,-138.0494 2200,-159 2200,-159 2200,-159 1899.7613,-159 1899.7613,-159"/>
<polygon fill="#000000" stroke="#000000" points="1899.7613,-155.5001 1889.7613,-159 1899.7613,-162.5001 1899.7613,-155.5001"/>
</g>
<!-- MatTabsModule -->
<g id="node10" class="node">
<title>MatTabsModule</title>
<polygon fill="#8dd3c7" stroke="#000000" points="2112.8118,-122 2109.8118,-126 2088.8118,-126 2085.8118,-122 2003.1882,-122 2003.1882,-86 2112.8118,-86 2112.8118,-122"/>
<text text-anchor="middle" x="2058" y="-99.8" font-family="Times,serif" font-size="14.00" fill="#000000">MatTabsModule</text>
</g>
<!-- MatTabsModule&#45;&gt;AppModule -->
<g id="edge9" class="edge">
<title>MatTabsModule&#45;&gt;AppModule</title>
<path fill="none" stroke="#000000" d="M2058,-122.1243C2058,-136.7832 2058,-155 2058,-155 2058,-155 1899.7403,-155 1899.7403,-155"/>
<polygon fill="#000000" stroke="#000000" points="1899.7404,-151.5001 1889.7403,-155 1899.7403,-158.5001 1899.7404,-151.5001"/>
</g>
<!-- MatGridListModule -->
<g id="node11" class="node">
<title>MatGridListModule</title>
<polygon fill="#8dd3c7" stroke="#000000" points="1985.5366,-122 1982.5366,-126 1961.5366,-126 1958.5366,-122 1856.4634,-122 1856.4634,-86 1985.5366,-86 1985.5366,-122"/>
<text text-anchor="middle" x="1921" y="-99.8" font-family="Times,serif" font-size="14.00" fill="#000000">MatGridListModule</text>
</g>
<!-- MatGridListModule&#45;&gt;AppModule -->
<g id="edge10" class="edge">
<title>MatGridListModule&#45;&gt;AppModule</title>
<path fill="none" stroke="#000000" d="M1873.0302,-122.1061C1873.0302,-122.1061 1873.0302,-140.991 1873.0302,-140.991"/>
<polygon fill="#000000" stroke="#000000" points="1869.5302,-140.9909 1873.0302,-150.991 1876.5302,-140.991 1869.5302,-140.9909"/>
</g>
<!-- MatToolbarModule -->
<g id="node12" class="node">
<title>MatToolbarModule</title>
<polygon fill="#8dd3c7" stroke="#000000" points="1838.4187,-122 1835.4187,-126 1814.4187,-126 1811.4187,-122 1711.5813,-122 1711.5813,-86 1838.4187,-86 1838.4187,-122"/>
<text text-anchor="middle" x="1775" y="-99.8" font-family="Times,serif" font-size="14.00" fill="#000000">MatToolbarModule</text>
</g>
<!-- MatToolbarModule&#45;&gt;AppModule -->
<g id="edge11" class="edge">
<title>MatToolbarModule&#45;&gt;AppModule</title>
<path fill="none" stroke="#000000" d="M1822.1904,-122.1061C1822.1904,-122.1061 1822.1904,-140.991 1822.1904,-140.991"/>
<polygon fill="#000000" stroke="#000000" points="1818.6905,-140.9909 1822.1904,-150.991 1825.6905,-140.991 1818.6905,-140.9909"/>
</g>
<!-- FlexLayoutModule -->
<g id="node13" class="node">
<title>FlexLayoutModule</title>
<polygon fill="#8dd3c7" stroke="#000000" points="1694.0954,-122 1691.0954,-126 1670.0954,-126 1667.0954,-122 1569.9046,-122 1569.9046,-86 1694.0954,-86 1694.0954,-122"/>
<text text-anchor="middle" x="1632" y="-99.8" font-family="Times,serif" font-size="14.00" fill="#000000">FlexLayoutModule</text>
</g>
<!-- FlexLayoutModule&#45;&gt;AppModule -->
<g id="edge12" class="edge">
<title>FlexLayoutModule&#45;&gt;AppModule</title>
<path fill="none" stroke="#000000" d="M1632,-122.1243C1632,-136.7832 1632,-155 1632,-155 1632,-155 1796.0969,-155 1796.0969,-155"/>
<polygon fill="#000000" stroke="#000000" points="1796.0969,-158.5001 1806.0969,-155 1796.0969,-151.5001 1796.0969,-158.5001"/>
</g>
<!-- MatCardModule -->
<g id="node14" class="node">
<title>MatCardModule</title>
<polygon fill="#8dd3c7" stroke="#000000" points="1551.8118,-122 1548.8118,-126 1527.8118,-126 1524.8118,-122 1442.1882,-122 1442.1882,-86 1551.8118,-86 1551.8118,-122"/>
<text text-anchor="middle" x="1497" y="-99.8" font-family="Times,serif" font-size="14.00" fill="#000000">MatCardModule</text>
</g>
<!-- MatCardModule&#45;&gt;AppModule -->
<g id="edge13" class="edge">
<title>MatCardModule&#45;&gt;AppModule</title>
<path fill="none" stroke="#000000" d="M1497,-122.0091C1497,-138.0494 1497,-159 1497,-159 1497,-159 1796.0098,-159 1796.0098,-159"/>
<polygon fill="#000000" stroke="#000000" points="1796.0099,-162.5001 1806.0098,-159 1796.0098,-155.5001 1796.0099,-162.5001"/>
</g>
<!-- MatInputModule -->
<g id="node15" class="node">
<title>MatInputModule</title>
<polygon fill="#8dd3c7" stroke="#000000" points="1424.6513,-122 1421.6513,-126 1400.6513,-126 1397.6513,-122 1313.3487,-122 1313.3487,-86 1424.6513,-86 1424.6513,-122"/>
<text text-anchor="middle" x="1369" y="-99.8" font-family="Times,serif" font-size="14.00" fill="#000000">MatInputModule</text>
</g>
<!-- MatInputModule&#45;&gt;AppModule -->
<g id="edge14" class="edge">
<title>MatInputModule&#45;&gt;AppModule</title>
<path fill="none" stroke="#000000" d="M1369,-122.0336C1369,-139.0597 1369,-162 1369,-162 1369,-162 1796.3298,-162 1796.3298,-162"/>
<polygon fill="#000000" stroke="#000000" points="1796.3299,-165.5001 1806.3298,-162 1796.3298,-158.5001 1796.3299,-165.5001"/>
</g>
<!-- Ng2SearchPipeModule -->
<g id="node16" class="node">
<title>Ng2SearchPipeModule</title>
<polygon fill="#8dd3c7" stroke="#000000" points="1295.1317,-122 1292.1317,-126 1271.1317,-126 1268.1317,-122 1148.8683,-122 1148.8683,-86 1295.1317,-86 1295.1317,-122"/>
<text text-anchor="middle" x="1222" y="-99.8" font-family="Times,serif" font-size="14.00" fill="#000000">Ng2SearchPipeModule</text>
</g>
<!-- Ng2SearchPipeModule&#45;&gt;AppModule -->
<g id="edge15" class="edge">
<title>Ng2SearchPipeModule&#45;&gt;AppModule</title>
<path fill="none" stroke="#000000" d="M1222,-122.2667C1222,-140.5552 1222,-166 1222,-166 1222,-166 1795.9543,-166 1795.9543,-166"/>
<polygon fill="#000000" stroke="#000000" points="1795.9544,-169.5001 1805.9543,-166 1795.9543,-162.5001 1795.9544,-169.5001"/>
</g>
<!-- MatSidenavModule -->
<g id="node17" class="node">
<title>MatSidenavModule</title>
<polygon fill="#8dd3c7" stroke="#000000" points="1130.7022,-122 1127.7022,-126 1106.7022,-126 1103.7022,-122 1003.2978,-122 1003.2978,-86 1130.7022,-86 1130.7022,-122"/>
<text text-anchor="middle" x="1067" y="-99.8" font-family="Times,serif" font-size="14.00" fill="#000000">MatSidenavModule</text>
</g>
<!-- MatSidenavModule&#45;&gt;AppModule -->
<g id="edge16" class="edge">
<title>MatSidenavModule&#45;&gt;AppModule</title>
<path fill="none" stroke="#000000" d="M1067,-122.1061C1067,-141.3391 1067,-169 1067,-169 1067,-169 1796.2862,-169 1796.2862,-169"/>
<polygon fill="#000000" stroke="#000000" points="1796.2862,-172.5001 1806.2862,-169 1796.2861,-165.5001 1796.2862,-172.5001"/>
</g>
<!-- RouterModule.forRoot(args) -->
<g id="node18" class="node">
<title>RouterModule.forRoot(args)</title>
<polygon fill="#8dd3c7" stroke="#000000" points="985.8419,-122 982.8419,-126 961.8419,-126 958.8419,-122 808.1581,-122 808.1581,-86 985.8419,-86 985.8419,-122"/>
<text text-anchor="middle" x="897" y="-99.8" font-family="Times,serif" font-size="14.00" fill="#000000">RouterModule.forRoot(args)</text>
</g>
<!-- RouterModule.forRoot(args)&#45;&gt;AppModule -->
<g id="edge17" class="edge">
<title>RouterModule.forRoot(args)&#45;&gt;AppModule</title>
<path fill="none" stroke="#000000" d="M897,-122.1289C897,-142.5724 897,-173 897,-173 897,-173 1796.2179,-173 1796.2179,-173"/>
<polygon fill="#000000" stroke="#000000" points="1796.218,-176.5001 1806.2179,-173 1796.2179,-169.5001 1796.218,-176.5001"/>
</g>
<!-- Ng2EmojiModule.forRoot() -->
<g id="node19" class="node">
<title>Ng2EmojiModule.forRoot()</title>
<polygon fill="#8dd3c7" stroke="#000000" points="790.2506,-122 787.2506,-126 766.2506,-126 763.2506,-122 615.7494,-122 615.7494,-86 790.2506,-86 790.2506,-122"/>
<text text-anchor="middle" x="703" y="-99.8" font-family="Times,serif" font-size="14.00" fill="#000000">Ng2EmojiModule.forRoot()</text>
</g>
<!-- Ng2EmojiModule.forRoot()&#45;&gt;AppModule -->
<g id="edge18" class="edge">
<title>Ng2EmojiModule.forRoot()&#45;&gt;AppModule</title>
<path fill="none" stroke="#000000" d="M703,-122.0449C703,-143.6623 703,-177 703,-177 703,-177 1796.2323,-177 1796.2323,-177"/>
<polygon fill="#000000" stroke="#000000" points="1796.2323,-180.5001 1806.2323,-177 1796.2323,-173.5001 1796.2323,-180.5001"/>
</g>
<!-- TranslateModule.forRoot() -->
<g id="node20" class="node">
<title>TranslateModule.forRoot()</title>
<polygon fill="#8dd3c7" stroke="#000000" points="598.0022,-122 595.0022,-126 574.0022,-126 571.0022,-122 429.9978,-122 429.9978,-86 598.0022,-86 598.0022,-122"/>
<text text-anchor="middle" x="514" y="-99.8" font-family="Times,serif" font-size="14.00" fill="#000000">TranslateModule.forRoot()</text>
</g>
<!-- TranslateModule.forRoot()&#45;&gt;AppModule -->
<g id="edge19" class="edge">
<title>TranslateModule.forRoot()&#45;&gt;AppModule</title>
<path fill="none" stroke="#000000" d="M514,-122.0109C514,-144.4852 514,-180 514,-180 514,-180 1796.2437,-180 1796.2437,-180"/>
<polygon fill="#000000" stroke="#000000" points="1796.2438,-183.5001 1806.2437,-180 1796.2437,-176.5001 1796.2438,-183.5001"/>
</g>
<!-- { provide: APP_BASE_HREF, useValue: &#39;/&#39; } -->
<g id="node23" class="node">
<title>{ provide: APP_BASE_HREF, useValue: &#39;/&#39; }</title>
<ellipse fill="#fdb462" stroke="#000000" cx="215" cy="-104" rx="191.343" ry="18"/>
<text text-anchor="middle" x="215" y="-99.8" font-family="Times,serif" font-size="14.00" fill="#000000">{ provide: APP_BASE_HREF, useValue: &#39;/&#39; }</text>
</g>
<!-- { provide: APP_BASE_HREF, useValue: &#39;/&#39; }&#45;&gt;AppModule -->
<g id="edge22" class="edge">
<title>{ provide: APP_BASE_HREF, useValue: &#39;/&#39; }&#45;&gt;AppModule</title>
<path fill="none" stroke="#000000" d="M215,-122.1532C215,-145.7566 215,-184 215,-184 215,-184 1795.9925,-184 1795.9925,-184"/>
<polygon fill="#000000" stroke="#000000" points="1795.9925,-187.5001 1805.9925,-184 1795.9924,-180.5001 1795.9925,-187.5001"/>
</g>
</g>
</svg>
